<svg width="320" height="220" viewBox="0 0 320 220" fill="none" xmlns="http://www.w3.org/2000/svg">
	<rect x="30" y="40" width="260" height="140" rx="16" fill="#F5FAFF" stroke="#1ABC9C" stroke-width="2" />
	<rect x="60" y="60" width="200" height="40" rx="8" fill="#E3FCEC" />
	<rect x="70" y="70" width="60" height="20" rx="4" fill="#B2F2E5" />
	<rect x="140" y="70" width="40" height="20" rx="4" fill="#B2F2E5" />
	<rect x="200" y="70" width="40" height="20" rx="4" fill="#B2F2E5" />
	<rect x="80" y="120" width="160" height="30" rx="6" fill="#fff" />
	<rect x="90" y="130" width="60" height="10" rx="2" fill="#1ABC9C" />
	<rect x="170" y="130" width="40" height="10" rx="2" fill="#D1E8FF" />
	<circle cx="250" cy="150" r="16" fill="#E3FCEC" />
	<path d="M250 150 l10 -10 M250 150 l-10 -10 M250 150 l0 -14" stroke="#1ABC9C" stroke-width="3" />
	<rect x="40" y="190" width="240" height="8" rx="2" fill="#E3FCEC" />
</svg>
