<svg width="320" height="220" viewBox="0 0 320 220" fill="none" xmlns="http://www.w3.org/2000/svg">
	<rect x="20" y="40" width="280" height="160" rx="16" fill="#F5FAFF" stroke="#1ABC9C" stroke-width="2" />
	<rect x="40" y="60" width="120" height="20" rx="4" fill="#E3FCEC" />
	<rect x="40" y="90" width="60" height="10" rx="2" fill="#B2F2E5" />
	<rect x="110" y="90" width="40" height="10" rx="2" fill="#B2F2E5" />
	<rect x="40" y="110" width="80" height="10" rx="2" fill="#D1E8FF" />
	<rect x="130" y="110" width="30" height="10" rx="2" fill="#D1E8FF" />
	<rect x="40" y="130" width="100" height="10" rx="2" fill="#E3FCEC" />
	<rect x="40" y="150" width="60" height="10" rx="2" fill="#B2F2E5" />
	<rect x="110" y="150" width="40" height="10" rx="2" fill="#B2F2E5" />
	<rect x="180" y="60" width="100" height="60" rx="8" fill="#D1E8FF" />
	<path d="M200 110 Q210 90 240 100 Q270 110 280 80" stroke="#1ABC9C" stroke-width="3" fill="none" />
	<circle cx="260" cy="150" r="18" fill="#1ABC9C" />
	<rect x="250" y="140" width="20" height="16" rx="4" fill="#fff" />
	<rect x="255" y="145" width="10" height="6" rx="2" fill="#1ABC9C" />
	<rect x="200" y="130" width="60" height="10" rx="2" fill="#E3FCEC" />
	<rect x="200" y="150" width="40" height="10" rx="2" fill="#B2F2E5" />
	<rect x="200" y="170" width="30" height="10" rx="2" fill="#D1E8FF" />
	<rect x="40" y="180" width="220" height="8" rx="2" fill="#E3FCEC" />
	<rect x="20" y="200" width="280" height="8" rx="2" fill="#D1E8FF" />
</svg>
