<?xml version="1.0" encoding="UTF-8"?>
<!DOCTYPE svg PUBLIC "-//W3C//DTD SVG 1.1//EN" "http://www.w3.org/Graphics/SVG/1.1/DTD/svg11.dtd">
<svg xmlns="http://www.w3.org/2000/svg" version="1.1" width="1024px" height="1024px" style="shape-rendering:geometricPrecision; text-rendering:geometricPrecision; image-rendering:optimizeQuality; fill-rule:evenodd; clip-rule:evenodd" xmlns:xlink="http://www.w3.org/1999/xlink">
<g><path style="opacity:1" fill="#f5f5f5" d="M -0.5,-0.5 C 340.833,-0.5 682.167,-0.5 1023.5,-0.5C 1023.5,340.833 1023.5,682.167 1023.5,1023.5C 682.167,1023.5 340.833,1023.5 -0.5,1023.5C -0.5,682.167 -0.5,340.833 -0.5,-0.5 Z"/></g>
<g><path style="opacity:1" fill="#fdfcf6" d="M 754.5,109.5 C 594.5,109.5 434.5,109.5 274.5,109.5C 288.309,108.711 304.143,108.045 322,107.5C 462.005,108.566 602.838,108.566 744.5,107.5C 749.447,108.283 754.447,108.783 759.5,109C 757.866,109.494 756.199,109.66 754.5,109.5 Z"/></g>
<g><path style="opacity:1" fill="#1383ef" d="M 871.5,151.5 C 893.265,169.659 908.598,192.326 917.5,219.5C 912.312,207.152 905.812,194.819 898,182.5C 889.683,171.686 880.85,161.353 871.5,151.5 Z"/></g>
<g><path style="opacity:1" fill="#fdfcf5" d="M 94.5,271.5 C 94.5,274.167 94.5,276.833 94.5,279.5C 94.5,432.833 94.5,586.167 94.5,739.5C 94.665,742.85 94.4983,746.183 94,749.5C 93.6667,745.5 93.3333,741.5 93,737.5C 92.3333,585.167 92.3333,432.833 93,280.5C 92.9058,275.312 93.4058,272.312 94.5,271.5 Z"/></g>
<g><path style="opacity:1" fill="#0071f1" d="M 94.5,279.5 C 95.1776,433.839 95.8443,588.339 96.5,743C 96.4971,745.69 96.1638,748.19 95.5,750.5C 95.815,746.629 95.4816,742.962 94.5,739.5C 94.5,586.167 94.5,432.833 94.5,279.5 Z"/></g>
<g><path style="opacity:1" fill="#0d91ed" d="M 274.5,109.5 C 434.5,109.5 594.5,109.5 754.5,109.5C 796.181,109.894 833.848,122.394 867.5,147C 869.041,148.371 870.375,149.871 871.5,151.5C 880.85,161.353 889.683,171.686 898,182.5C 905.812,194.819 912.312,207.152 917.5,219.5C 920.335,226.517 922.502,233.851 924,241.5C 926.406,256.416 928.073,271.416 929,286.5C 929.667,437.167 929.667,587.833 929,738.5C 927.651,769.228 920.651,798.561 908,826.5C 886.53,867.338 853.364,893.505 808.5,905C 796.916,907.95 785.249,910.45 773.5,912.5C 771.359,911.837 769.025,911.503 766.5,911.5C 601.006,912.157 435.673,912.824 270.5,913.5C 265.833,913.5 261.167,913.5 256.5,913.5C 223.532,910.528 192.865,900.362 164.5,883C 158.039,878.705 152.372,873.539 147.5,867.5C 138.102,857.933 129.602,847.599 122,836.5C 118.124,829.406 114.291,822.406 110.5,815.5C 106.273,806.991 103.106,797.991 101,788.5C 98.5109,775.919 96.6776,763.253 95.5,750.5C 96.1638,748.19 96.4971,745.69 96.5,743C 95.8443,588.339 95.1776,433.839 94.5,279.5C 94.5,276.833 94.5,274.167 94.5,271.5C 97.0091,224.319 115.342,184.486 149.5,152C 173.305,132.049 200.639,119.382 231.5,114C 245.917,111.826 260.25,110.326 274.5,109.5 Z"/></g>
<g><path style="opacity:1" fill="#fdfcf5" d="M 760.5,464.5 C 760.5,530.833 760.5,597.167 760.5,663.5C 760.5,683.833 760.5,704.167 760.5,724.5C 759.812,719.433 759.145,714.267 758.5,709C 758.406,627.071 758.573,544.905 759,462.5C 759.278,463.416 759.778,464.082 760.5,464.5 Z"/></g>
<g><path style="opacity:1" fill="#0187ed" d="M 759.5,457.5 C 760.117,457.611 760.617,457.944 761,458.5C 761.333,460.5 761.667,462.5 762,464.5C 762.167,487 762.333,509.5 762.5,532C 762.305,597.029 762.138,662.195 762,727.5C 761.832,705.996 761.332,684.663 760.5,663.5C 760.5,597.167 760.5,530.833 760.5,464.5C 760.326,462.139 759.993,459.806 759.5,457.5 Z"/></g>
<g><path style="opacity:1" fill="#077eee" d="M 276.5,440.5 C 269.316,446.533 264.982,454.2 263.5,463.5C 262.667,498.998 262.167,534.664 262,570.5C 261.333,533.833 261.333,497.167 262,460.5C 263.753,455.655 265.753,451.655 268,448.5C 270.068,444.93 272.901,442.263 276.5,440.5 Z"/></g>
<g><path style="opacity:1" fill="#1d85f0" d="M 520.5,259.5 C 520.917,258.876 521.584,258.543 522.5,258.5C 525.279,259.389 527.945,260.556 530.5,262C 561.056,287.723 592.056,312.89 623.5,337.5C 625.19,339.519 626.856,341.519 628.5,343.5C 595.393,316.903 562.393,290.069 529.5,263C 526.673,261.336 523.673,260.17 520.5,259.5 Z"/></g>
<g><path style="opacity:1" fill="#f5f5f5" d="M 520.5,259.5 C 523.673,260.17 526.673,261.336 529.5,263C 562.393,290.069 595.393,316.903 628.5,343.5C 670.144,378.302 711.977,412.969 754,447.5C 756.13,450.767 757.963,454.1 759.5,457.5C 759.993,459.806 760.326,462.139 760.5,464.5C 759.778,464.082 759.278,463.416 759,462.5C 758.573,544.905 758.406,627.071 758.5,709C 759.145,714.267 759.812,719.433 760.5,724.5C 760.5,725.833 760.5,727.167 760.5,728.5C 758.934,737.356 753.934,743.023 745.5,745.5C 592.421,744.523 439.254,744.189 286,744.5C 284.698,745.085 283.531,745.751 282.5,746.5C 271.671,743.826 265.504,736.826 264,725.5C 263.5,638.167 263.333,550.834 263.5,463.5C 264.982,454.2 269.316,446.533 276.5,440.5C 349.563,382.282 422.23,323.449 494.5,264C 502.554,258.776 511.22,257.276 520.5,259.5 Z"/></g>
<g><path style="opacity:1" fill="#0d91ed" d="M 704.5,466.5 C 704.062,466.435 703.728,466.601 703.5,467C 705.667,469.167 707.833,471.333 710,473.5C 710.667,545.833 710.667,618.167 710,690.5C 708.702,691.946 708.535,693.279 709.5,694.5C 707.869,696.643 705.869,698.31 703.5,699.5C 702.833,699.5 702.167,699.5 701.5,699.5C 575.334,698.667 449.001,698.167 322.5,698C 317.537,697.698 314.371,695.198 313,690.5C 312.667,620.167 312.333,549.833 312,479.5C 311.722,478.584 311.222,477.918 310.5,477.5C 312.179,472.808 315.179,469.142 319.5,466.5C 319.897,467.525 320.563,467.692 321.5,467C 327.648,461.429 333.981,456.096 340.5,451C 341.744,450.544 342.577,451.044 343,452.5C 343.833,451.667 344.667,450.833 345.5,450C 344.549,449.282 344.383,448.449 345,447.5C 349.865,443.297 354.698,439.13 359.5,435C 359.272,434.601 358.938,434.435 358.5,434.5C 408.907,391.595 460.074,349.595 512,308.5C 520.489,314.986 528.989,321.486 537.5,328C 593.237,374.185 648.904,420.352 704.5,466.5 Z"/></g>
<g><path style="opacity:1" fill="#0481f0" d="M 310.5,477.5 C 311.222,477.918 311.722,478.584 312,479.5C 312.333,549.833 312.667,620.167 313,690.5C 314.371,695.198 317.537,697.698 322.5,698C 449.001,698.167 575.334,698.667 701.5,699.5C 574.5,699.5 447.5,699.5 320.5,699.5C 315.46,697.96 312.293,694.626 311,689.5C 310.5,618.834 310.333,548.167 310.5,477.5 Z"/></g>
<g><path style="opacity:1" fill="#5db2f2" d="M 499.5,541.5 C 500.498,564.327 500.831,587.327 500.5,610.5C 493.313,610.825 486.313,610.491 479.5,609.5C 486.167,609.5 492.833,609.5 499.5,609.5C 499.5,586.833 499.5,564.167 499.5,541.5 Z"/></g>
<g><path style="opacity:1" fill="#0f7def" d="M 585.5,607.5 C 589.279,603.268 591.446,598.268 592,592.5C 592.5,575.503 592.667,558.503 592.5,541.5C 593.659,558.426 593.826,576.092 593,594.5C 592.261,598.385 590.927,602.052 589,605.5C 588.184,606.823 587.017,607.489 585.5,607.5 Z"/></g>
<g><path style="opacity:1" fill="#f4f5f5" d="M 592.5,541.5 C 592.667,558.503 592.5,575.503 592,592.5C 591.446,598.268 589.279,603.268 585.5,607.5C 584.078,607.709 582.745,608.209 581.5,609C 561.836,609.5 542.169,609.667 522.5,609.5C 522.5,586.833 522.5,564.167 522.5,541.5C 545.833,541.5 569.167,541.5 592.5,541.5 Z"/></g>
<g><path style="opacity:1" fill="#f5f5f5" d="M 499.5,541.5 C 499.5,564.167 499.5,586.833 499.5,609.5C 492.833,609.5 486.167,609.5 479.5,609.5C 466.496,609.667 453.496,609.5 440.5,609C 435.938,607.373 433.105,604.206 432,599.5C 431.5,580.17 431.333,560.836 431.5,541.5C 454.167,541.5 476.833,541.5 499.5,541.5 Z"/></g>
<g><path style="opacity:1" fill="#0482ed" d="M 591.5,517.5 C 592.166,508.006 592.5,498.339 592.5,488.5C 592.632,477.765 592.132,467.098 591,456.5C 589.084,452.915 586.251,450.415 582.5,449C 576.843,448.501 571.176,448.334 565.5,448.5C 552.34,447.669 539.006,447.169 525.5,447C 543.833,446.333 562.167,446.333 580.5,447C 587.322,447.988 591.489,451.821 593,458.5C 593.5,478.831 593.667,499.164 593.5,519.5C 571.497,519.667 549.497,519.5 527.5,519C 549.004,518.832 570.337,518.332 591.5,517.5 Z"/></g>
<g><path style="opacity:1" fill="#0a89ef" d="M 704.5,466.5 C 707.527,468.264 710.027,470.598 712,473.5C 712.667,545.167 712.667,616.833 712,688.5C 711.427,690.641 710.594,692.641 709.5,694.5C 708.535,693.279 708.702,691.946 710,690.5C 710.667,618.167 710.667,545.833 710,473.5C 707.833,471.333 705.667,469.167 703.5,467C 703.728,466.601 704.062,466.435 704.5,466.5 Z"/></g>
<g><path style="opacity:1" fill="#0585ed" d="M 433.5,455.5 C 433.013,456.473 432.513,457.473 432,458.5C 431.5,478.164 431.333,497.831 431.5,517.5C 454.167,517.5 476.833,517.5 499.5,517.5C 500.332,495.004 500.832,472.337 501,449.5C 501.172,472.739 501.672,495.906 502.5,519C 478.493,519.833 454.493,519.666 430.5,518.5C 429.347,500.21 429.18,481.877 430,463.5C 430.054,460.139 431.054,457.139 433,454.5C 433.399,454.728 433.565,455.062 433.5,455.5 Z"/></g>
<g><path style="opacity:1" fill="#1a84f0" d="M 358.5,434.5 C 358.938,434.435 359.272,434.601 359.5,435C 354.698,439.13 349.865,443.297 345,447.5C 344.383,448.449 344.549,449.282 345.5,450C 344.667,450.833 343.833,451.667 343,452.5C 342.577,451.044 341.744,450.544 340.5,451C 333.981,456.096 327.648,461.429 321.5,467C 320.563,467.692 319.897,467.525 319.5,466.5C 332.5,455.833 345.5,445.167 358.5,434.5 Z"/></g>
<g><path style="opacity:1" fill="#f4f5f5" d="M 565.5,448.5 C 571.176,448.334 576.843,448.501 582.5,449C 586.251,450.415 589.084,452.915 591,456.5C 592.132,467.098 592.632,477.765 592.5,488.5C 592.5,498.339 592.166,508.006 591.5,517.5C 568.5,517.5 545.5,517.5 522.5,517.5C 522.5,494.5 522.5,471.5 522.5,448.5C 536.833,448.5 551.167,448.5 565.5,448.5 Z"/></g>
<g><path style="opacity:1" fill="#f5f5f5" d="M 499.5,517.5 C 476.833,517.5 454.167,517.5 431.5,517.5C 431.333,497.831 431.5,478.164 432,458.5C 432.513,457.473 433.013,456.473 433.5,455.5C 435.372,452.471 438.039,450.305 441.5,449C 460.83,448.5 480.164,448.333 499.5,448.5C 499.5,471.5 499.5,494.5 499.5,517.5 Z"/></g>
<g><path style="opacity:1" fill="#fbfcf5" d="M 320.5,699.5 C 447.5,699.5 574.5,699.5 701.5,699.5C 702.167,699.5 702.833,699.5 703.5,699.5C 703.082,700.222 702.416,700.722 701.5,701C 638,701.167 574.5,701.333 511,701.5C 447.163,701.5 383.663,700.833 320.5,699.5 Z"/></g>
<g><path style="opacity:1" fill="#f6f6f4" d="M 745.5,745.5 C 603.668,746.5 461.668,746.833 319.5,746.5C 307.167,746.5 294.833,746.5 282.5,746.5C 283.531,745.751 284.698,745.085 286,744.5C 439.254,744.189 592.421,744.523 745.5,745.5 Z"/></g>
<g><path style="opacity:1" fill="#027bf0" d="M 760.5,728.5 C 761.01,734.089 759.01,738.922 754.5,743C 752.33,744.586 749.996,745.92 747.5,747C 604.666,747.833 461.999,747.666 319.5,746.5C 461.668,746.833 603.668,746.5 745.5,745.5C 753.934,743.023 758.934,737.356 760.5,728.5 Z"/></g>
<g><path style="opacity:1" fill="#1983ef" d="M 110.5,815.5 C 114.291,822.406 118.124,829.406 122,836.5C 129.602,847.599 138.102,857.933 147.5,867.5C 130.734,853.294 118.401,835.961 110.5,815.5 Z"/></g>
<g><path style="opacity:1" fill="#0074ef" d="M 773.5,912.5 C 770.615,912.194 767.948,912.527 765.5,913.5C 600.5,913.5 435.5,913.5 270.5,913.5C 435.673,912.824 601.006,912.157 766.5,911.5C 769.025,911.503 771.359,911.837 773.5,912.5 Z"/></g>
<g><path style="opacity:1" fill="#fdfbf6" d="M 256.5,913.5 C 261.167,913.5 265.833,913.5 270.5,913.5C 435.5,913.5 600.5,913.5 765.5,913.5C 766.873,913.343 768.207,913.51 769.5,914C 763.023,914.798 756.523,915.298 750,915.5C 588.791,915.49 427.791,915.49 267,915.5C 262.152,915.009 258.652,914.343 256.5,913.5 Z"/></g>
</svg>
